<svg xmlns="http://www.w3.org/2000/svg" xmlns:xlink="http://www.w3.org/1999/xlink" width="500" zoomAndPan="magnify" viewBox="0 0 375 374.999991" height="500" preserveAspectRatio="xMidYMid meet" version="1.0"><defs><g/><clipPath id="e2d1d1f752"><path d="M 211 102 L 264 102 L 264 224.859375 L 211 224.859375 Z M 211 102 " clip-rule="nonzero"/></clipPath><clipPath id="346e8bd2bd"><path d="M 111 102 L 165 102 L 165 224.859375 L 111 224.859375 Z M 111 102 " clip-rule="nonzero"/></clipPath><clipPath id="0f6505827a"><path d="M 141 66 L 234 66 L 234 224.859375 L 141 224.859375 Z M 141 66 " clip-rule="nonzero"/></clipPath><clipPath id="180fc419e9"><path d="M 96.570312 19.359375 L 278.070312 19.359375 L 278.070312 102 L 96.570312 102 Z M 96.570312 19.359375 " clip-rule="nonzero"/></clipPath><clipPath id="d32f4d8aaf"><rect x="0" width="319" y="0" height="114"/></clipPath><clipPath id="6e70d33a01"><rect x="0" width="105" y="0" height="38"/></clipPath></defs><rect x="-37.5" width="450" fill="#ffffff" y="-37.499999" height="449.999989" fill-opacity="1"/><g clip-path="url(#e2d1d1f752)"><path fill="#ab8e4c" d="M 211.335938 224.859375 L 263.707031 224.859375 L 263.707031 111.175781 L 251.363281 102.011719 L 251.363281 212.445312 L 211.335938 212.445312 Z M 211.335938 224.859375 " fill-opacity="1" fill-rule="nonzero"/></g><g clip-path="url(#346e8bd2bd)"><path fill="#ab8e4c" d="M 164.105469 224.859375 L 164.105469 212.445312 L 123.871094 212.445312 L 123.871094 102.011719 L 111.570312 111.175781 L 111.570312 224.859375 Z M 164.105469 224.859375 " fill-opacity="1" fill-rule="nonzero"/></g><g clip-path="url(#0f6505827a)"><path fill="#ab8e4c" d="M 181.550781 66.625 L 181.550781 110.230469 L 141.355469 110.230469 L 141.355469 122.355469 L 181.550781 122.355469 L 181.550781 224.859375 L 193.890625 224.859375 L 193.890625 122.355469 L 233.921875 122.355469 L 233.921875 110.230469 L 193.890625 110.230469 L 193.890625 66.625 Z M 181.550781 66.625 " fill-opacity="1" fill-rule="nonzero"/></g><g clip-path="url(#180fc419e9)"><path fill="#ab8e4c" d="M 278.683594 101.597656 L 278.683594 86.472656 L 187.722656 19.359375 L 96.597656 86.472656 L 96.597656 101.597656 L 187.722656 34.648438 Z M 278.683594 101.597656 " fill-opacity="1" fill-rule="nonzero"/></g><g transform="matrix(1, 0, 0, 1, 29, 233)"><g clip-path="url(#d32f4d8aaf)"><g fill="#544013" fill-opacity="1"><g transform="translate(1.311526, 75.447458)"><g><path d="M 7.59375 -5.921875 L 9.859375 -43.671875 L 3.859375 -44.40625 L 3.859375 -50.46875 L 25.96875 -50.46875 L 33.75 -24.640625 L 34.828125 -18.046875 L 36.21875 -24.640625 L 43.546875 -50.46875 L 63.921875 -50.46875 L 63.921875 -44.40625 L 57.859375 -43.671875 L 61.1875 -5.859375 L 66.3125 -4.453125 L 66.3125 0 L 44.734375 0 L 44.734375 -4.453125 L 50.140625 -5.921875 L 48.328125 -30.828125 L 48.203125 -44.078125 L 47.078125 -39.546875 L 35.546875 0.59375 L 31.296875 0.59375 L 20.578125 -31.625 L 16.640625 -43.8125 L 16.578125 -34.75 L 15.578125 -5.984375 L 21.578125 -4.53125 L 21.578125 0 L 2 0 L 2 -4.53125 Z M 7.59375 -5.921875 "/></g></g></g><g fill="#544013" fill-opacity="1"><g transform="translate(70.275409, 75.447458)"><g><path d="M 12.921875 -56.453125 C 15.046875 -56.453125 16.6875 -55.910156 17.84375 -54.828125 C 19 -53.742188 19.578125 -52.242188 19.578125 -50.328125 C 19.578125 -48.203125 18.785156 -46.460938 17.203125 -45.109375 C 15.628906 -43.753906 13.78125 -43.078125 11.65625 -43.078125 C 9.789062 -43.078125 8.210938 -43.648438 6.921875 -44.796875 C 5.640625 -45.953125 5 -47.421875 5 -49.203125 C 5 -50.535156 5.382812 -51.753906 6.15625 -52.859375 C 6.9375 -53.972656 7.9375 -54.847656 9.15625 -55.484375 C 10.375 -56.128906 11.628906 -56.453125 12.921875 -56.453125 Z M 18.4375 -36.625 L 18.4375 -5.265625 L 23.109375 -4.390625 L 23.109375 0 L 2.59375 0 L 2.59375 -4.390625 L 6.921875 -5.328125 L 6.921875 -25.5625 L 2.796875 -30.21875 L 2.796875 -33.296875 L 15.640625 -37.421875 Z M 18.4375 -36.625 "/></g></g></g><g fill="#544013" fill-opacity="1"><g transform="translate(96.569702, 75.447458)"><g><path d="M 7.1875 -5.265625 L 7.1875 -26.625 L 2.796875 -29.765625 L 2.796875 -33.828125 L 14.84375 -37.421875 L 17.3125 -36.8125 L 17.3125 -31.953125 C 19 -33.640625 21.09375 -34.972656 23.59375 -35.953125 C 26.101562 -36.929688 28.535156 -37.421875 30.890625 -37.421875 C 34.835938 -37.421875 37.609375 -36.195312 39.203125 -33.75 C 40.804688 -31.3125 41.609375 -27.648438 41.609375 -22.765625 L 41.609375 -5.265625 L 46.140625 -4.390625 L 46.140625 0 L 25.4375 0 L 25.4375 -4.390625 L 30.09375 -5.328125 L 30.09375 -21.3125 C 30.09375 -23.707031 29.9375 -25.488281 29.625 -26.65625 C 29.3125 -27.832031 28.703125 -28.664062 27.796875 -29.15625 C 26.890625 -29.644531 25.503906 -29.890625 23.640625 -29.890625 C 23.054688 -29.890625 22.1875 -29.722656 21.03125 -29.390625 C 19.882812 -29.054688 19.109375 -28.734375 18.703125 -28.421875 L 18.703125 -5.328125 L 22.703125 -4.390625 L 22.703125 0 L 3.125 0 L 3.125 -4.390625 Z M 7.1875 -5.265625 "/></g></g></g><g fill="#544013" fill-opacity="1"><g transform="translate(146.229089, 75.447458)"><g><path d="M 12.921875 -56.453125 C 15.046875 -56.453125 16.6875 -55.910156 17.84375 -54.828125 C 19 -53.742188 19.578125 -52.242188 19.578125 -50.328125 C 19.578125 -48.203125 18.785156 -46.460938 17.203125 -45.109375 C 15.628906 -43.753906 13.78125 -43.078125 11.65625 -43.078125 C 9.789062 -43.078125 8.210938 -43.648438 6.921875 -44.796875 C 5.640625 -45.953125 5 -47.421875 5 -49.203125 C 5 -50.535156 5.382812 -51.753906 6.15625 -52.859375 C 6.9375 -53.972656 7.9375 -54.847656 9.15625 -55.484375 C 10.375 -56.128906 11.628906 -56.453125 12.921875 -56.453125 Z M 18.4375 -36.625 L 18.4375 -5.265625 L 23.109375 -4.390625 L 23.109375 0 L 2.59375 0 L 2.59375 -4.390625 L 6.921875 -5.328125 L 6.921875 -25.5625 L 2.796875 -30.21875 L 2.796875 -33.296875 L 15.640625 -37.421875 Z M 18.4375 -36.625 "/></g></g></g><g fill="#544013" fill-opacity="1"><g transform="translate(172.523382, 75.447458)"><g><path d="M 8.59375 -10.71875 L 10.65625 -7.125 C 11.9375 -5.832031 13.019531 -4.921875 13.90625 -4.390625 C 14.800781 -3.859375 15.957031 -3.59375 17.375 -3.59375 C 19.101562 -3.59375 20.421875 -3.957031 21.328125 -4.6875 C 22.242188 -5.425781 22.703125 -6.414062 22.703125 -7.65625 C 22.660156 -8.769531 21.9375 -9.769531 20.53125 -10.65625 C 19.132812 -11.539062 17.039062 -12.601562 14.25 -13.84375 C 10.425781 -15.625 7.535156 -17.507812 5.578125 -19.5 C 3.628906 -21.5 2.65625 -23.988281 2.65625 -26.96875 C 2.707031 -29.226562 3.507812 -31.144531 5.0625 -32.71875 C 6.613281 -34.300781 8.566406 -35.476562 10.921875 -36.25 C 13.273438 -37.03125 15.71875 -37.421875 18.25 -37.421875 C 20.238281 -37.503906 22.539062 -37.359375 25.15625 -36.984375 C 27.78125 -36.609375 29.78125 -36.128906 31.15625 -35.546875 L 31.15625 -26.625 L 25.4375 -26.625 L 23.640625 -30.6875 C 23.015625 -31.445312 22.28125 -32.070312 21.4375 -32.5625 C 20.59375 -33.050781 19.726562 -33.296875 18.84375 -33.296875 C 17.46875 -33.296875 16.320312 -33.015625 15.40625 -32.453125 C 14.5 -31.898438 14.046875 -31.179688 14.046875 -30.296875 C 14.046875 -29.140625 14.390625 -28.140625 15.078125 -27.296875 C 15.765625 -26.453125 16.707031 -25.6875 17.90625 -25 C 19.101562 -24.3125 20.859375 -23.4375 23.171875 -22.375 C 26.671875 -20.769531 29.296875 -19.144531 31.046875 -17.5 C 32.804688 -15.863281 33.6875 -13.671875 33.6875 -10.921875 C 33.6875 -6.878906 32.066406 -3.914062 28.828125 -2.03125 C 25.585938 -0.144531 21.414062 0.796875 16.3125 0.796875 C 14.09375 0.796875 11.75 0.53125 9.28125 0 C 6.820312 -0.53125 4.816406 -1.238281 3.265625 -2.125 L 3.265625 -10.71875 Z M 8.59375 -10.71875 "/></g></g></g><g fill="#544013" fill-opacity="1"><g transform="translate(210.134114, 75.447458)"><g><path d="M 16.578125 -36.359375 L 27.703125 -36.359375 L 27.703125 -30.5625 L 17.046875 -30.5625 L 17.046875 -18.046875 C 17.046875 -15.117188 17.109375 -12.851562 17.234375 -11.25 C 17.367188 -9.65625 17.722656 -8.347656 18.296875 -7.328125 C 18.878906 -6.304688 19.789062 -5.796875 21.03125 -5.796875 C 21.832031 -5.796875 22.84375 -5.914062 24.0625 -6.15625 C 25.289062 -6.40625 26.171875 -6.660156 26.703125 -6.921875 L 28.421875 -3.265625 C 27.097656 -1.929688 25.203125 -0.921875 22.734375 -0.234375 C 20.273438 0.453125 17.78125 0.796875 15.25 0.796875 C 12.800781 0.796875 10.898438 0.375 9.546875 -0.46875 C 8.191406 -1.3125 7.238281 -2.597656 6.6875 -4.328125 C 6.132812 -6.054688 5.859375 -8.34375 5.859375 -11.1875 L 5.859375 -30.5625 L 0.9375 -30.5625 L 0.9375 -34.21875 C 3.769531 -34.664062 5.851562 -35.554688 7.1875 -36.890625 C 7.988281 -37.679688 8.664062 -38.695312 9.21875 -39.9375 C 9.769531 -41.1875 10.40625 -42.898438 11.125 -45.078125 L 16.578125 -45.078125 Z M 16.578125 -36.359375 "/></g></g></g><g fill="#544013" fill-opacity="1"><g transform="translate(242.153197, 75.447458)"><g><path d="M 7.1875 -5.265625 L 7.1875 -26.625 L 2.796875 -29.765625 L 2.796875 -33.828125 L 14.84375 -37.421875 L 17.171875 -36.8125 L 17.171875 -30.5 C 17.484375 -31.695312 18.160156 -32.828125 19.203125 -33.890625 C 20.242188 -34.953125 21.429688 -35.804688 22.765625 -36.453125 C 24.097656 -37.097656 25.34375 -37.421875 26.5 -37.421875 C 28.320312 -37.421875 29.5 -37.285156 30.03125 -37.015625 L 30.03125 -26.765625 C 29.539062 -27.253906 28.707031 -27.628906 27.53125 -27.890625 C 26.351562 -28.160156 25.34375 -28.296875 24.5 -28.296875 C 23.257812 -28.296875 22.09375 -28.171875 21 -27.921875 C 19.914062 -27.679688 19.148438 -27.40625 18.703125 -27.09375 L 18.703125 -5.53125 L 26.296875 -4.390625 L 26.296875 0 L 3.203125 0 L 3.203125 -4.390625 Z M 7.1875 -5.265625 "/></g></g></g><g fill="#544013" fill-opacity="1"><g transform="translate(275.570185, 75.447458)"><g><path d="M 4.796875 8.453125 C 5.722656 8.671875 6.507812 8.820312 7.15625 8.90625 C 7.800781 9 8.613281 9.023438 9.59375 8.984375 C 11.582031 8.984375 13.253906 8.148438 14.609375 6.484375 C 15.960938 4.828125 16.972656 2.664062 17.640625 0 L 15.78125 0 L 3 -29.6875 L 0.140625 -30.5625 L 0.140625 -36.359375 L 19.171875 -36.359375 L 19.171875 -30.5625 L 15.453125 -29.765625 L 21.90625 -12.390625 L 22.375 -9.046875 L 23.375 -12.390625 L 28.625 -29.828125 L 24.171875 -30.5625 L 24.171875 -36.359375 L 40.671875 -36.359375 L 40.671875 -30.5625 L 37.484375 -29.890625 C 36.148438 -26.566406 34.039062 -21.273438 31.15625 -14.015625 C 28.269531 -6.753906 26.140625 -1.484375 24.765625 1.796875 C 23.742188 4.546875 22.742188 6.863281 21.765625 8.75 C 20.796875 10.632812 19.753906 12.222656 18.640625 13.515625 C 17.441406 14.890625 16.144531 15.921875 14.75 16.609375 C 13.351562 17.296875 11.742188 17.640625 9.921875 17.640625 C 8.859375 17.640625 7.789062 17.59375 6.71875 17.5 C 5.65625 17.414062 4.992188 17.285156 4.734375 17.109375 Z M 4.796875 8.453125 "/></g></g></g></g></g><g transform="matrix(1, 0, 0, 1, 138, 319)"><g clip-path="url(#6e70d33a01)"><g fill="#544013" fill-opacity="1"><g transform="translate(1.956213, 28.795245)"><g><path d="M 2.625 -18.75 L 7.8125 -18.75 C 10.039062 -18.75 11.757812 -18.320312 12.96875 -17.46875 C 14.175781 -16.625 14.78125 -15.234375 14.78125 -13.296875 C 14.78125 -11.410156 14.171875 -9.988281 12.953125 -9.03125 C 11.734375 -8.070312 10.0625 -7.59375 7.9375 -7.59375 L 4.734375 -7.59375 L 4.734375 0 L 2.625 0 Z M 7.625 -9.328125 C 9.351562 -9.328125 10.625 -9.644531 11.4375 -10.28125 C 12.257812 -10.914062 12.671875 -11.921875 12.671875 -13.296875 C 12.671875 -14.660156 12.25 -15.625 11.40625 -16.1875 C 10.570312 -16.75 9.269531 -17.03125 7.5 -17.03125 L 4.734375 -17.03125 L 4.734375 -9.328125 Z M 7.625 -9.328125 "/></g></g></g><g fill="#544013" fill-opacity="1"><g transform="translate(24.126124, 28.795245)"><g><path d="M 5.5625 0.34375 C 4.382812 0.34375 3.414062 0 2.65625 -0.6875 C 1.894531 -1.375 1.515625 -2.332031 1.515625 -3.5625 C 1.515625 -5.070312 2.195312 -6.226562 3.5625 -7.03125 C 4.9375 -7.84375 7.125 -8.410156 10.125 -8.734375 C 10.125 -9.816406 9.898438 -10.703125 9.453125 -11.390625 C 9.003906 -12.085938 8.238281 -12.4375 7.15625 -12.4375 C 5.84375 -12.4375 4.445312 -11.929688 2.96875 -10.921875 L 2.140625 -12.359375 C 3.960938 -13.578125 5.75 -14.1875 7.5 -14.1875 C 9.101562 -14.1875 10.285156 -13.6875 11.046875 -12.6875 C 11.804688 -11.6875 12.1875 -10.3125 12.1875 -8.5625 L 12.1875 0 L 10.46875 0 L 10.296875 -1.6875 L 10.21875 -1.6875 C 8.582031 -0.332031 7.03125 0.34375 5.5625 0.34375 Z M 6.109375 -1.34375 C 6.773438 -1.34375 7.425781 -1.5 8.0625 -1.8125 C 8.695312 -2.125 9.382812 -2.613281 10.125 -3.28125 L 10.125 -7.328125 C 7.75 -7.046875 6.0625 -6.609375 5.0625 -6.015625 C 4.0625 -5.429688 3.5625 -4.65625 3.5625 -3.6875 C 3.5625 -2.90625 3.800781 -2.316406 4.28125 -1.921875 C 4.757812 -1.535156 5.367188 -1.34375 6.109375 -1.34375 Z M 6.109375 -1.34375 "/></g></g></g><g fill="#544013" fill-opacity="1"><g transform="translate(44.555545, 28.795245)"><g><path d="M 7.046875 6.453125 C 5.316406 6.453125 3.929688 6.117188 2.890625 5.453125 C 1.859375 4.785156 1.34375 3.867188 1.34375 2.703125 C 1.34375 2.117188 1.515625 1.550781 1.859375 1 C 2.210938 0.445312 2.710938 -0.046875 3.359375 -0.484375 L 3.359375 -0.59375 C 3.003906 -0.820312 2.710938 -1.125 2.484375 -1.5 C 2.253906 -1.882812 2.140625 -2.335938 2.140625 -2.859375 C 2.140625 -3.390625 2.285156 -3.878906 2.578125 -4.328125 C 2.878906 -4.773438 3.238281 -5.140625 3.65625 -5.421875 L 3.65625 -5.53125 C 3.15625 -5.9375 2.734375 -6.460938 2.390625 -7.109375 C 2.054688 -7.753906 1.890625 -8.46875 1.890625 -9.25 C 1.890625 -10.21875 2.113281 -11.078125 2.5625 -11.828125 C 3.019531 -12.578125 3.640625 -13.15625 4.421875 -13.5625 C 5.203125 -13.976562 6.054688 -14.1875 6.984375 -14.1875 C 7.617188 -14.1875 8.257812 -14.070312 8.90625 -13.84375 L 13.6875 -13.84375 L 13.6875 -12.21875 L 10.75 -12.21875 C 11.113281 -11.875 11.410156 -11.429688 11.640625 -10.890625 C 11.867188 -10.359375 11.984375 -9.800781 11.984375 -9.21875 C 11.984375 -8.257812 11.765625 -7.414062 11.328125 -6.6875 C 10.890625 -5.957031 10.289062 -5.390625 9.53125 -4.984375 C 8.769531 -4.585938 7.921875 -4.390625 6.984375 -4.390625 C 6.222656 -4.390625 5.519531 -4.550781 4.875 -4.875 C 4.570312 -4.632812 4.335938 -4.382812 4.171875 -4.125 C 4.015625 -3.863281 3.9375 -3.546875 3.9375 -3.171875 C 3.9375 -2.671875 4.117188 -2.28125 4.484375 -2 C 4.859375 -1.726562 5.492188 -1.59375 6.390625 -1.59375 L 9.15625 -1.59375 C 10.769531 -1.59375 11.96875 -1.328125 12.75 -0.796875 C 13.53125 -0.265625 13.921875 0.5625 13.921875 1.6875 C 13.921875 2.519531 13.632812 3.300781 13.0625 4.03125 C 12.5 4.769531 11.691406 5.359375 10.640625 5.796875 C 9.597656 6.234375 8.398438 6.453125 7.046875 6.453125 Z M 6.984375 -5.828125 C 7.847656 -5.828125 8.578125 -6.144531 9.171875 -6.78125 C 9.773438 -7.414062 10.078125 -8.238281 10.078125 -9.25 C 10.078125 -10.269531 9.78125 -11.085938 9.1875 -11.703125 C 8.59375 -12.328125 7.859375 -12.640625 6.984375 -12.640625 C 6.109375 -12.640625 5.367188 -12.328125 4.765625 -11.703125 C 4.171875 -11.085938 3.875 -10.269531 3.875 -9.25 C 3.875 -8.238281 4.171875 -7.414062 4.765625 -6.78125 C 5.367188 -6.144531 6.109375 -5.828125 6.984375 -5.828125 Z M 7.328125 4.96875 C 8.203125 4.96875 8.988281 4.828125 9.6875 4.546875 C 10.382812 4.273438 10.921875 3.90625 11.296875 3.4375 C 11.679688 2.96875 11.875 2.476562 11.875 1.96875 C 11.875 1.320312 11.632812 0.859375 11.15625 0.578125 C 10.675781 0.304688 9.953125 0.171875 8.984375 0.171875 L 6.453125 0.171875 C 5.859375 0.171875 5.265625 0.09375 4.671875 -0.0625 C 3.671875 0.644531 3.171875 1.472656 3.171875 2.421875 C 3.171875 3.203125 3.539062 3.820312 4.28125 4.28125 C 5.019531 4.738281 6.035156 4.96875 7.328125 4.96875 Z M 7.328125 4.96875 "/></g></g></g><g fill="#544013" fill-opacity="1"><g transform="translate(64.956421, 28.795245)"><g><path d="M 12.984375 -7.703125 C 12.984375 -7.210938 12.953125 -6.796875 12.890625 -6.453125 L 3.34375 -6.453125 C 3.4375 -4.828125 3.929688 -3.566406 4.828125 -2.671875 C 5.734375 -1.785156 6.84375 -1.34375 8.15625 -1.34375 C 9.375 -1.34375 10.546875 -1.710938 11.671875 -2.453125 L 12.4375 -1.078125 C 11.75 -0.640625 11.046875 -0.289062 10.328125 -0.03125 C 9.609375 0.21875 8.800781 0.34375 7.90625 0.34375 C 6.6875 0.34375 5.578125 0.0546875 4.578125 -0.515625 C 3.578125 -1.097656 2.785156 -1.941406 2.203125 -3.046875 C 1.628906 -4.148438 1.34375 -5.4375 1.34375 -6.90625 C 1.34375 -8.351562 1.628906 -9.625 2.203125 -10.71875 C 2.785156 -11.820312 3.550781 -12.675781 4.5 -13.28125 C 5.457031 -13.882812 6.46875 -14.1875 7.53125 -14.1875 C 9.238281 -14.1875 10.570312 -13.609375 11.53125 -12.453125 C 12.5 -11.304688 12.984375 -9.722656 12.984375 -7.703125 Z M 11.125 -7.953125 C 11.125 -9.421875 10.8125 -10.546875 10.1875 -11.328125 C 9.5625 -12.109375 8.6875 -12.5 7.5625 -12.5 C 6.53125 -12.5 5.613281 -12.109375 4.8125 -11.328125 C 4.019531 -10.546875 3.546875 -9.421875 3.390625 -7.953125 Z M 11.125 -7.953125 "/></g></g></g><g fill="#544013" fill-opacity="1"><g transform="translate(85.129025, 28.795245)"><g><path d="M 5.96875 0.34375 C 5.007812 0.34375 4.082031 0.164062 3.1875 -0.1875 C 2.300781 -0.539062 1.515625 -1 0.828125 -1.5625 L 1.890625 -2.96875 C 2.566406 -2.414062 3.226562 -1.992188 3.875 -1.703125 C 4.519531 -1.421875 5.242188 -1.28125 6.046875 -1.28125 C 6.960938 -1.28125 7.664062 -1.5 8.15625 -1.9375 C 8.65625 -2.375 8.90625 -2.925781 8.90625 -3.59375 C 8.90625 -4.257812 8.625 -4.789062 8.0625 -5.1875 C 7.5 -5.59375 6.703125 -5.972656 5.671875 -6.328125 C 4.359375 -6.804688 3.332031 -7.328125 2.59375 -7.890625 C 1.851562 -8.453125 1.484375 -9.253906 1.484375 -10.296875 C 1.484375 -11.421875 1.90625 -12.347656 2.75 -13.078125 C 3.59375 -13.816406 4.738281 -14.1875 6.1875 -14.1875 C 6.96875 -14.1875 7.71875 -14.039062 8.4375 -13.75 C 9.164062 -13.46875 9.816406 -13.097656 10.390625 -12.640625 L 9.390625 -11.296875 C 8.835938 -11.691406 8.3125 -11.992188 7.8125 -12.203125 C 7.320312 -12.421875 6.78125 -12.53125 6.1875 -12.53125 C 5.3125 -12.53125 4.644531 -12.320312 4.1875 -11.90625 C 3.738281 -11.5 3.515625 -11 3.515625 -10.40625 C 3.515625 -9.988281 3.648438 -9.628906 3.921875 -9.328125 C 4.203125 -9.023438 4.539062 -8.78125 4.9375 -8.59375 C 5.332031 -8.414062 5.894531 -8.1875 6.625 -7.90625 C 7.59375 -7.539062 8.351562 -7.210938 8.90625 -6.921875 C 9.457031 -6.640625 9.929688 -6.238281 10.328125 -5.71875 C 10.722656 -5.195312 10.921875 -4.523438 10.921875 -3.703125 C 10.921875 -2.960938 10.722656 -2.28125 10.328125 -1.65625 C 9.941406 -1.039062 9.375 -0.550781 8.625 -0.1875 C 7.875 0.164062 6.988281 0.34375 5.96875 0.34375 Z M 5.96875 0.34375 "/></g></g></g></g></g></svg>