<svg xmlns="http://www.w3.org/2000/svg" xmlns:xlink="http://www.w3.org/1999/xlink" width="500" zoomAndPan="magnify" viewBox="0 0 375 374.999991" height="500" preserveAspectRatio="xMidYMid meet" version="1.0"><defs><g/><clipPath id="8291d61f79"><path d="M 206 120 L 248 120 L 248 216.496094 L 206 216.496094 Z M 206 120 " clip-rule="nonzero"/></clipPath><clipPath id="cfdf754998"><path d="M 127 120 L 170 120 L 170 216.496094 L 127 216.496094 Z M 127 120 " clip-rule="nonzero"/></clipPath><clipPath id="fd3a0b8be7"><path d="M 151 92 L 224 92 L 224 216.496094 L 151 216.496094 Z M 151 92 " clip-rule="nonzero"/></clipPath><clipPath id="e393c902c8"><path d="M 115.976562 55.246094 L 259.183594 55.246094 L 259.183594 120 L 115.976562 120 Z M 115.976562 55.246094 " clip-rule="nonzero"/></clipPath><clipPath id="e4a90404ad"><rect x="0" width="210" y="0" height="90"/></clipPath><clipPath id="045cc951b6"><rect x="0" width="96" y="0" height="30"/></clipPath></defs><rect x="-37.5" width="450" fill="#ffffff" y="-37.499999" height="449.999989" fill-opacity="1"/><g clip-path="url(#8291d61f79)"><path fill="#ab8e4c" d="M 206.1875 216.496094 L 247.351562 216.496094 L 247.351562 127.292969 L 237.648438 120.101562 L 237.648438 206.757812 L 206.1875 206.757812 Z M 206.1875 216.496094 " fill-opacity="1" fill-rule="nonzero"/></g><g clip-path="url(#cfdf754998)"><path fill="#ab8e4c" d="M 169.0625 216.496094 L 169.0625 206.757812 L 137.4375 206.757812 L 137.4375 120.101562 L 127.765625 127.292969 L 127.765625 216.496094 Z M 169.0625 216.496094 " fill-opacity="1" fill-rule="nonzero"/></g><g clip-path="url(#fd3a0b8be7)"><path fill="#ab8e4c" d="M 182.773438 92.335938 L 182.773438 126.550781 L 151.179688 126.550781 L 151.179688 136.066406 L 182.773438 136.066406 L 182.773438 216.496094 L 192.472656 216.496094 L 192.472656 136.066406 L 223.9375 136.066406 L 223.9375 126.550781 L 192.472656 126.550781 L 192.472656 92.335938 Z M 182.773438 92.335938 " fill-opacity="1" fill-rule="nonzero"/></g><g clip-path="url(#e393c902c8)"><path fill="#ab8e4c" d="M 259.121094 119.777344 L 259.121094 107.910156 L 187.625 55.246094 L 115.996094 107.910156 L 115.996094 119.777344 L 187.625 67.242188 Z M 259.121094 119.777344 " fill-opacity="1" fill-rule="nonzero"/></g><g transform="matrix(1, 0, 0, 1, 84, 223)"><g clip-path="url(#e4a90404ad)"><g fill="#544013" fill-opacity="1"><g transform="translate(0.397992, 59.632196)"><g><path d="M 24.25 -40.0625 C 27.25 -40.0625 30.507812 -39.601562 34.03125 -38.6875 C 34.03125 -38.6875 34.378906 -38.601562 35.078125 -38.4375 L 34.5625 -28.484375 L 29.21875 -28.484375 L 27.328125 -33.71875 C 27.085938 -34.132812 26.59375 -34.507812 25.84375 -34.84375 C 25.09375 -35.175781 23.753906 -35.34375 21.828125 -35.34375 C 19.703125 -35.34375 17.890625 -34.695312 16.390625 -33.40625 C 14.890625 -32.113281 13.753906 -30.367188 12.984375 -28.171875 C 12.210938 -25.972656 11.828125 -23.53125 11.828125 -20.84375 C 11.828125 -17.90625 12.238281 -15.117188 13.0625 -12.484375 C 13.882812 -9.847656 15.085938 -7.71875 16.671875 -6.09375 C 18.265625 -4.476562 20.175781 -3.671875 22.40625 -3.671875 C 23.976562 -3.671875 25.304688 -3.816406 26.390625 -4.109375 C 27.472656 -4.410156 28.1875 -4.941406 28.53125 -5.703125 L 30.625 -10.84375 L 35.078125 -10.84375 L 35.078125 -1.734375 C 34.835938 -1.734375 34.035156 -1.539062 32.671875 -1.15625 C 30.816406 -0.59375 29.0625 -0.140625 27.40625 0.203125 C 25.75 0.554688 23.875 0.734375 21.78125 0.734375 C 17.800781 0.734375 14.289062 -0.0507812 11.25 -1.625 C 8.21875 -3.195312 5.875 -5.4375 4.21875 -8.34375 C 2.5625 -11.257812 1.734375 -14.65625 1.734375 -18.53125 C 1.734375 -22.550781 2.726562 -26.203125 4.71875 -29.484375 C 6.707031 -32.765625 9.421875 -35.347656 12.859375 -37.234375 C 16.296875 -39.117188 20.09375 -40.0625 24.25 -40.0625 Z M 24.25 -40.0625 "/></g></g></g><g fill="#544013" fill-opacity="1"><g transform="translate(39.667435, 59.632196)"><g><path d="M 5.1875 -4.1875 L 5.1875 -35.390625 L 1.734375 -36.859375 L 1.734375 -40.421875 L 12.78125 -41.671875 L 14.234375 -41.203125 L 14.234375 -28.640625 L 13.71875 -26.015625 C 16.226562 -28.285156 19.382812 -29.421875 23.1875 -29.421875 C 25.601562 -29.421875 27.429688 -28.890625 28.671875 -27.828125 C 29.910156 -26.765625 30.726562 -25.28125 31.125 -23.375 C 31.53125 -21.476562 31.710938 -19.023438 31.671875 -16.015625 L 31.671875 -4.1875 L 35.1875 -3.453125 L 35.1875 0 L 18.953125 -0.046875 L 18.953125 -3.453125 L 22.671875 -4.1875 L 22.671875 -14.765625 C 22.671875 -16.929688 22.570312 -18.625 22.375 -19.84375 C 22.1875 -21.0625 21.75 -22.03125 21.0625 -22.75 C 20.382812 -23.46875 19.332031 -23.828125 17.90625 -23.828125 C 16.4375 -23.828125 15.210938 -23.441406 14.234375 -22.671875 L 14.234375 -4.140625 L 16.75 -3.453125 L 16.75 0 L 1.515625 0 L 1.515625 -3.453125 Z M 5.1875 -4.1875 "/></g></g></g><g fill="#544013" fill-opacity="1"><g transform="translate(77.680248, 59.632196)"><g><path d="M 1.359375 -23.984375 L 1.359375 -27.125 L 11.09375 -29.421875 L 12.46875 -29 L 12.46875 -11.203125 C 12.46875 -8.828125 12.734375 -7.082031 13.265625 -5.96875 C 13.804688 -4.851562 14.847656 -4.296875 16.390625 -4.296875 C 17.222656 -4.296875 18.078125 -4.40625 18.953125 -4.625 C 19.828125 -4.851562 20.488281 -5.179688 20.9375 -5.609375 L 20.9375 -21.78125 L 17.703125 -23.5625 L 17.703125 -27.125 L 28.375 -29.421875 L 29.796875 -29 L 29.796875 -3.453125 L 32.71875 -3.453125 L 32.71875 -0.734375 C 32.125 -0.316406 31.039062 0.03125 29.46875 0.3125 C 27.90625 0.59375 26.582031 0.734375 25.5 0.734375 C 24.414062 0.734375 23.53125 0.492188 22.84375 0.015625 C 22.164062 -0.453125 21.828125 -1.15625 21.828125 -2.09375 L 21.828125 -3.09375 C 20.992188 -2.082031 19.722656 -1.191406 18.015625 -0.421875 C 16.304688 0.347656 14.769531 0.734375 13.40625 0.734375 C 9.8125 0.734375 7.304688 -0.117188 5.890625 -1.828125 C 4.472656 -3.535156 3.765625 -6.257812 3.765625 -10 L 3.765625 -22.203125 Z M 1.359375 -23.984375 "/></g></g></g><g fill="#544013" fill-opacity="1"><g transform="translate(113.284544, 59.632196)"><g><path d="M 5.65625 -4.140625 L 5.65625 -20.9375 L 2.203125 -23.40625 L 2.203125 -26.59375 L 11.671875 -29.421875 L 13.515625 -28.953125 L 13.515625 -23.984375 C 13.753906 -24.921875 14.285156 -25.804688 15.109375 -26.640625 C 15.929688 -27.484375 16.863281 -28.15625 17.90625 -28.65625 C 18.957031 -29.164062 19.9375 -29.421875 20.84375 -29.421875 C 22.269531 -29.421875 23.191406 -29.316406 23.609375 -29.109375 L 23.609375 -21.046875 C 23.222656 -21.429688 22.566406 -21.726562 21.640625 -21.9375 C 20.722656 -22.144531 19.929688 -22.25 19.265625 -22.25 C 18.285156 -22.25 17.367188 -22.148438 16.515625 -21.953125 C 15.660156 -21.765625 15.0625 -21.550781 14.71875 -21.3125 L 14.71875 -4.34375 L 20.6875 -3.453125 L 20.6875 0 L 2.515625 0 L 2.515625 -3.453125 Z M 5.65625 -4.140625 "/></g></g></g><g fill="#544013" fill-opacity="1"><g transform="translate(139.568947, 59.632196)"><g><path d="M 18.6875 -29.421875 C 20.15625 -29.421875 21.753906 -29.304688 23.484375 -29.078125 C 25.210938 -28.859375 26.460938 -28.535156 27.234375 -28.109375 L 27.234375 -20 L 22.5625 -20 L 20.53125 -24.8125 C 19.832031 -25.238281 18.710938 -25.453125 17.171875 -25.453125 C 15.179688 -25.453125 13.707031 -24.460938 12.75 -22.484375 C 11.789062 -20.515625 11.3125 -18.046875 11.3125 -15.078125 C 11.3125 -11.828125 12.023438 -9.222656 13.453125 -7.265625 C 14.890625 -5.316406 16.953125 -4.34375 19.640625 -4.34375 C 20.929688 -4.34375 22.253906 -4.5 23.609375 -4.8125 C 24.972656 -5.125 26.039062 -5.5625 26.8125 -6.125 L 28.171875 -2.9375 C 26.804688 -1.75 25.101562 -0.835938 23.0625 -0.203125 C 21.019531 0.421875 18.707031 0.734375 16.125 0.734375 C 13.226562 0.734375 10.707031 0.140625 8.5625 -1.046875 C 6.414062 -2.234375 4.773438 -3.90625 3.640625 -6.0625 C 2.503906 -8.226562 1.9375 -10.742188 1.9375 -13.609375 C 1.9375 -16.753906 2.640625 -19.519531 4.046875 -21.90625 C 5.460938 -24.300781 7.445312 -26.148438 10 -27.453125 C 12.550781 -28.765625 15.445312 -29.421875 18.6875 -29.421875 Z M 18.6875 -29.421875 "/></g></g></g><g fill="#544013" fill-opacity="1"><g transform="translate(170.146781, 59.632196)"><g><path d="M 5.1875 -4.1875 L 5.1875 -35.390625 L 1.734375 -36.859375 L 1.734375 -40.421875 L 12.78125 -41.671875 L 14.234375 -41.203125 L 14.234375 -28.640625 L 13.71875 -26.015625 C 16.226562 -28.285156 19.382812 -29.421875 23.1875 -29.421875 C 25.601562 -29.421875 27.429688 -28.890625 28.671875 -27.828125 C 29.910156 -26.765625 30.726562 -25.28125 31.125 -23.375 C 31.53125 -21.476562 31.710938 -19.023438 31.671875 -16.015625 L 31.671875 -4.1875 L 35.1875 -3.453125 L 35.1875 0 L 18.953125 -0.046875 L 18.953125 -3.453125 L 22.671875 -4.1875 L 22.671875 -14.765625 C 22.671875 -16.929688 22.570312 -18.625 22.375 -19.84375 C 22.1875 -21.0625 21.75 -22.03125 21.0625 -22.75 C 20.382812 -23.46875 19.332031 -23.828125 17.90625 -23.828125 C 16.4375 -23.828125 15.210938 -23.441406 14.234375 -22.671875 L 14.234375 -4.140625 L 16.75 -3.453125 L 16.75 0 L 1.515625 0 L 1.515625 -3.453125 Z M 5.1875 -4.1875 "/></g></g></g></g></g><g transform="matrix(1, 0, 0, 1, 142, 291)"><g clip-path="url(#045cc951b6)"><g fill="#544013" fill-opacity="1"><g transform="translate(0.411318, 22.581524)"><g><path d="M 5.359375 -14.9375 C 4.316406 -14.9375 3.796875 -14.207031 3.796875 -12.75 L 3.796875 -10.875 L 6.140625 -10.875 L 6.140625 -9.53125 L 3.796875 -9.53125 L 3.796875 0 L 2.15625 0 L 2.15625 -9.53125 L 0.671875 -9.53125 L 0.671875 -10.765625 L 2.15625 -10.875 L 2.15625 -12.765625 C 2.15625 -13.890625 2.410156 -14.757812 2.921875 -15.375 C 3.441406 -15.988281 4.210938 -16.296875 5.234375 -16.296875 C 5.816406 -16.296875 6.398438 -16.175781 6.984375 -15.9375 L 6.625 -14.671875 C 6.195312 -14.847656 5.773438 -14.9375 5.359375 -14.9375 Z M 5.359375 -14.9375 "/></g></g></g><g fill="#544013" fill-opacity="1"><g transform="translate(11.610175, 22.581524)"><g><path d="M 6.0625 0.265625 C 5.164062 0.265625 4.332031 0.0390625 3.5625 -0.40625 C 2.800781 -0.863281 2.191406 -1.523438 1.734375 -2.390625 C 1.273438 -3.253906 1.046875 -4.269531 1.046875 -5.4375 C 1.046875 -6.601562 1.273438 -7.617188 1.734375 -8.484375 C 2.191406 -9.347656 2.800781 -10.007812 3.5625 -10.46875 C 4.332031 -10.925781 5.164062 -11.15625 6.0625 -11.15625 C 6.957031 -11.15625 7.785156 -10.925781 8.546875 -10.46875 C 9.304688 -10.007812 9.914062 -9.347656 10.375 -8.484375 C 10.832031 -7.617188 11.0625 -6.601562 11.0625 -5.4375 C 11.0625 -4.269531 10.832031 -3.253906 10.375 -2.390625 C 9.914062 -1.523438 9.304688 -0.863281 8.546875 -0.40625 C 7.785156 0.0390625 6.957031 0.265625 6.0625 0.265625 Z M 6.0625 -1.09375 C 6.695312 -1.09375 7.265625 -1.269531 7.765625 -1.625 C 8.273438 -1.988281 8.671875 -2.5 8.953125 -3.15625 C 9.234375 -3.820312 9.375 -4.582031 9.375 -5.4375 C 9.375 -6.28125 9.234375 -7.03125 8.953125 -7.6875 C 8.671875 -8.351562 8.273438 -8.867188 7.765625 -9.234375 C 7.265625 -9.597656 6.695312 -9.78125 6.0625 -9.78125 C 5.414062 -9.78125 4.84375 -9.597656 4.34375 -9.234375 C 3.84375 -8.867188 3.453125 -8.351562 3.171875 -7.6875 C 2.898438 -7.03125 2.765625 -6.28125 2.765625 -5.4375 C 2.765625 -4.132812 3.066406 -3.082031 3.671875 -2.28125 C 4.285156 -1.488281 5.082031 -1.09375 6.0625 -1.09375 Z M 6.0625 -1.09375 "/></g></g></g><g fill="#544013" fill-opacity="1"><g transform="translate(28.554353, 22.581524)"><g><path d="M 1.90625 -10.875 L 3.25 -10.875 L 3.390625 -8.890625 L 3.453125 -8.890625 C 3.828125 -9.585938 4.28125 -10.140625 4.8125 -10.546875 C 5.351562 -10.953125 5.929688 -11.15625 6.546875 -11.15625 C 6.984375 -11.15625 7.359375 -11.078125 7.671875 -10.921875 L 7.359375 -9.484375 C 6.972656 -9.609375 6.628906 -9.671875 6.328125 -9.671875 C 5.816406 -9.671875 5.3125 -9.460938 4.8125 -9.046875 C 4.3125 -8.628906 3.878906 -7.976562 3.515625 -7.09375 L 3.515625 0 L 1.90625 0 Z M 1.90625 -10.875 "/></g></g></g><g fill="#544013" fill-opacity="1"><g transform="translate(41.010013, 22.581524)"><g/></g></g><g fill="#544013" fill-opacity="1"><g transform="translate(50.323698, 22.581524)"><g><path d="M 5.203125 0.265625 C 4.128906 0.265625 3.359375 -0.0390625 2.890625 -0.65625 C 2.429688 -1.269531 2.203125 -2.144531 2.203125 -3.28125 L 2.203125 -9.53125 L 0.5625 -9.53125 L 0.5625 -10.765625 L 2.265625 -10.875 L 2.46875 -13.953125 L 3.84375 -13.953125 L 3.84375 -10.875 L 6.828125 -10.875 L 6.828125 -9.53125 L 3.84375 -9.53125 L 3.84375 -3.234375 C 3.84375 -2.515625 3.972656 -1.972656 4.234375 -1.609375 C 4.492188 -1.253906 4.9375 -1.078125 5.5625 -1.078125 C 5.875 -1.078125 6.296875 -1.175781 6.828125 -1.375 L 7.15625 -0.140625 C 6.351562 0.128906 5.703125 0.265625 5.203125 0.265625 Z M 5.203125 0.265625 "/></g></g></g><g fill="#544013" fill-opacity="1"><g transform="translate(62.577356, 22.581524)"><g><path d="M 1.90625 -16.015625 L 3.515625 -16.015625 L 3.515625 -11.578125 L 3.484375 -9.296875 C 4.078125 -9.890625 4.65625 -10.347656 5.21875 -10.671875 C 5.789062 -10.992188 6.421875 -11.15625 7.109375 -11.15625 C 8.242188 -11.15625 9.082031 -10.796875 9.625 -10.078125 C 10.164062 -9.367188 10.4375 -8.3125 10.4375 -6.90625 L 10.4375 0 L 8.796875 0 L 8.796875 -6.703125 C 8.796875 -7.753906 8.625 -8.519531 8.28125 -9 C 7.945312 -9.476562 7.398438 -9.71875 6.640625 -9.71875 C 6.097656 -9.71875 5.59375 -9.578125 5.125 -9.296875 C 4.664062 -9.023438 4.128906 -8.582031 3.515625 -7.96875 L 3.515625 0 L 1.90625 0 Z M 1.90625 -16.015625 "/></g></g></g><g fill="#544013" fill-opacity="1"><g transform="translate(79.521535, 22.581524)"><g><path d="M 10.203125 -6.0625 C 10.203125 -5.664062 10.179688 -5.335938 10.140625 -5.078125 L 2.625 -5.078125 C 2.695312 -3.796875 3.085938 -2.800781 3.796875 -2.09375 C 4.515625 -1.394531 5.390625 -1.046875 6.421875 -1.046875 C 7.378906 -1.046875 8.296875 -1.335938 9.171875 -1.921875 L 9.78125 -0.859375 C 9.238281 -0.515625 8.679688 -0.238281 8.109375 -0.03125 C 7.546875 0.164062 6.914062 0.265625 6.21875 0.265625 C 5.257812 0.265625 4.382812 0.0390625 3.59375 -0.40625 C 2.8125 -0.863281 2.191406 -1.523438 1.734375 -2.390625 C 1.273438 -3.265625 1.046875 -4.28125 1.046875 -5.4375 C 1.046875 -6.570312 1.273438 -7.570312 1.734375 -8.4375 C 2.191406 -9.300781 2.796875 -9.96875 3.546875 -10.4375 C 4.296875 -10.914062 5.085938 -11.15625 5.921875 -11.15625 C 7.265625 -11.15625 8.3125 -10.703125 9.0625 -9.796875 C 9.820312 -8.890625 10.203125 -7.644531 10.203125 -6.0625 Z M 8.75 -6.265625 C 8.75 -7.410156 8.5 -8.289062 8 -8.90625 C 7.507812 -9.519531 6.828125 -9.828125 5.953125 -9.828125 C 5.140625 -9.828125 4.414062 -9.519531 3.78125 -8.90625 C 3.15625 -8.289062 2.785156 -7.410156 2.671875 -6.265625 Z M 8.75 -6.265625 "/></g></g></g></g></g></svg>